<mxfile host="app.diagrams.net" agent="Mozilla/5.0 (Windows NT 10.0; Win64; x64) AppleWebKit/537.36 (KHTML, like Gecko) Chrome/129.0.0.0 Safari/537.36" version="24.7.12">
  <diagram name="PÃ¡gina-1" id="wuQoAf6K_r_Pp0G698PO">
    <mxGraphModel dx="1665" dy="413" grid="1" gridSize="10" guides="1" tooltips="1" connect="1" arrows="1" fold="1" page="1" pageScale="1" pageWidth="827" pageHeight="1169" math="0" shadow="0">
      <root>
        <mxCell id="0" />
        <mxCell id="1" parent="0" />
        <mxCell id="Ffvon_M2YyTjQ7ahiupn-13" style="edgeStyle=orthogonalEdgeStyle;rounded=0;orthogonalLoop=1;jettySize=auto;html=1;exitX=0;exitY=0.5;exitDx=0;exitDy=0;entryX=0.5;entryY=0;entryDx=0;entryDy=0;" parent="1" source="Ffvon_M2YyTjQ7ahiupn-11" target="Ffvon_M2YyTjQ7ahiupn-15" edge="1">
          <mxGeometry relative="1" as="geometry">
            <mxPoint x="250" y="160" as="targetPoint" />
            <Array as="points">
              <mxPoint x="230" y="115" />
              <mxPoint x="230" y="160" />
            </Array>
          </mxGeometry>
        </mxCell>
        <mxCell id="Ffvon_M2YyTjQ7ahiupn-14" style="edgeStyle=orthogonalEdgeStyle;rounded=0;orthogonalLoop=1;jettySize=auto;html=1;exitX=1;exitY=0.5;exitDx=0;exitDy=0;entryX=0.5;entryY=0;entryDx=0;entryDy=0;" parent="1" source="Ffvon_M2YyTjQ7ahiupn-11" target="Ffvon_M2YyTjQ7ahiupn-16" edge="1">
          <mxGeometry relative="1" as="geometry">
            <mxPoint x="570" y="160" as="targetPoint" />
          </mxGeometry>
        </mxCell>
        <mxCell id="Ffvon_M2YyTjQ7ahiupn-11" value="10" style="shape=process;whiteSpace=wrap;html=1;backgroundOutline=1;" parent="1" vertex="1">
          <mxGeometry x="330" y="100" width="90" height="30" as="geometry" />
        </mxCell>
        <mxCell id="Ffvon_M2YyTjQ7ahiupn-63" style="edgeStyle=orthogonalEdgeStyle;rounded=0;orthogonalLoop=1;jettySize=auto;html=1;exitX=0;exitY=0.5;exitDx=0;exitDy=0;entryX=0.5;entryY=0;entryDx=0;entryDy=0;" parent="1" source="Ffvon_M2YyTjQ7ahiupn-15" target="Ffvon_M2YyTjQ7ahiupn-26" edge="1">
          <mxGeometry relative="1" as="geometry" />
        </mxCell>
        <mxCell id="Ffvon_M2YyTjQ7ahiupn-64" style="edgeStyle=orthogonalEdgeStyle;rounded=0;orthogonalLoop=1;jettySize=auto;html=1;exitX=1;exitY=0.5;exitDx=0;exitDy=0;" parent="1" source="Ffvon_M2YyTjQ7ahiupn-15" target="Ffvon_M2YyTjQ7ahiupn-23" edge="1">
          <mxGeometry relative="1" as="geometry" />
        </mxCell>
        <mxCell id="Ffvon_M2YyTjQ7ahiupn-15" value="5" style="shape=process;whiteSpace=wrap;html=1;backgroundOutline=1;" parent="1" vertex="1">
          <mxGeometry x="180" y="160" width="90" height="30" as="geometry" />
        </mxCell>
        <mxCell id="Ffvon_M2YyTjQ7ahiupn-17" style="edgeStyle=orthogonalEdgeStyle;rounded=0;orthogonalLoop=1;jettySize=auto;html=1;exitX=0;exitY=0.5;exitDx=0;exitDy=0;entryX=0.433;entryY=0.167;entryDx=0;entryDy=0;entryPerimeter=0;" parent="1" source="Ffvon_M2YyTjQ7ahiupn-16" target="Ffvon_M2YyTjQ7ahiupn-18" edge="1">
          <mxGeometry relative="1" as="geometry">
            <mxPoint x="440" y="230" as="targetPoint" />
          </mxGeometry>
        </mxCell>
        <mxCell id="Ffvon_M2YyTjQ7ahiupn-19" style="edgeStyle=orthogonalEdgeStyle;rounded=0;orthogonalLoop=1;jettySize=auto;html=1;exitX=1;exitY=0.5;exitDx=0;exitDy=0;entryX=0.5;entryY=0;entryDx=0;entryDy=0;" parent="1" source="Ffvon_M2YyTjQ7ahiupn-16" target="Ffvon_M2YyTjQ7ahiupn-20" edge="1">
          <mxGeometry relative="1" as="geometry">
            <mxPoint x="700" y="230" as="targetPoint" />
          </mxGeometry>
        </mxCell>
        <mxCell id="Ffvon_M2YyTjQ7ahiupn-16" value="15" style="shape=process;whiteSpace=wrap;html=1;backgroundOutline=1;" parent="1" vertex="1">
          <mxGeometry x="550" y="160" width="90" height="30" as="geometry" />
        </mxCell>
        <mxCell id="Ffvon_M2YyTjQ7ahiupn-36" style="edgeStyle=orthogonalEdgeStyle;rounded=0;orthogonalLoop=1;jettySize=auto;html=1;exitX=1;exitY=0.5;exitDx=0;exitDy=0;entryX=0.383;entryY=0.1;entryDx=0;entryDy=0;entryPerimeter=0;" parent="1" source="Ffvon_M2YyTjQ7ahiupn-18" target="Ffvon_M2YyTjQ7ahiupn-54" edge="1">
          <mxGeometry relative="1" as="geometry">
            <mxPoint x="510" y="270" as="targetPoint" />
          </mxGeometry>
        </mxCell>
        <mxCell id="Ffvon_M2YyTjQ7ahiupn-37" style="edgeStyle=orthogonalEdgeStyle;rounded=0;orthogonalLoop=1;jettySize=auto;html=1;exitX=0;exitY=0.5;exitDx=0;exitDy=0;entryX=0.4;entryY=0.067;entryDx=0;entryDy=0;entryPerimeter=0;" parent="1" source="Ffvon_M2YyTjQ7ahiupn-18" target="Ffvon_M2YyTjQ7ahiupn-47" edge="1">
          <mxGeometry relative="1" as="geometry">
            <mxPoint x="380" y="270" as="targetPoint" />
          </mxGeometry>
        </mxCell>
        <mxCell id="Ffvon_M2YyTjQ7ahiupn-18" value="12" style="shape=process;whiteSpace=wrap;html=1;backgroundOutline=1;" parent="1" vertex="1">
          <mxGeometry x="490" y="230" width="90" height="30" as="geometry" />
        </mxCell>
        <mxCell id="Ffvon_M2YyTjQ7ahiupn-70" style="edgeStyle=orthogonalEdgeStyle;rounded=0;orthogonalLoop=1;jettySize=auto;html=1;exitX=0;exitY=0.5;exitDx=0;exitDy=0;" parent="1" source="Ffvon_M2YyTjQ7ahiupn-20" edge="1">
          <mxGeometry relative="1" as="geometry">
            <mxPoint x="660" y="260" as="targetPoint" />
          </mxGeometry>
        </mxCell>
        <mxCell id="Ffvon_M2YyTjQ7ahiupn-71" style="edgeStyle=orthogonalEdgeStyle;rounded=0;orthogonalLoop=1;jettySize=auto;html=1;exitX=1;exitY=0.5;exitDx=0;exitDy=0;" parent="1" source="Ffvon_M2YyTjQ7ahiupn-20" edge="1">
          <mxGeometry relative="1" as="geometry">
            <mxPoint x="770" y="260" as="targetPoint" />
          </mxGeometry>
        </mxCell>
        <mxCell id="Ffvon_M2YyTjQ7ahiupn-20" value="18" style="shape=process;whiteSpace=wrap;html=1;backgroundOutline=1;" parent="1" vertex="1">
          <mxGeometry x="670" y="230" width="90" height="30" as="geometry" />
        </mxCell>
        <mxCell id="Ffvon_M2YyTjQ7ahiupn-40" style="edgeStyle=orthogonalEdgeStyle;rounded=0;orthogonalLoop=1;jettySize=auto;html=1;exitX=0;exitY=0.5;exitDx=0;exitDy=0;entryX=0.5;entryY=0;entryDx=0;entryDy=0;" parent="1" source="Ffvon_M2YyTjQ7ahiupn-23" target="Ffvon_M2YyTjQ7ahiupn-60" edge="1">
          <mxGeometry relative="1" as="geometry">
            <mxPoint x="230" y="270" as="targetPoint" />
          </mxGeometry>
        </mxCell>
        <mxCell id="Ffvon_M2YyTjQ7ahiupn-69" style="edgeStyle=orthogonalEdgeStyle;rounded=0;orthogonalLoop=1;jettySize=auto;html=1;exitX=1;exitY=0.5;exitDx=0;exitDy=0;" parent="1" source="Ffvon_M2YyTjQ7ahiupn-23" edge="1">
          <mxGeometry relative="1" as="geometry">
            <mxPoint x="420" y="260" as="targetPoint" />
            <Array as="points">
              <mxPoint x="420" y="245" />
            </Array>
          </mxGeometry>
        </mxCell>
        <mxCell id="Ffvon_M2YyTjQ7ahiupn-23" value="7" style="shape=process;whiteSpace=wrap;html=1;backgroundOutline=1;" parent="1" vertex="1">
          <mxGeometry x="320" y="230" width="90" height="30" as="geometry" />
        </mxCell>
        <mxCell id="Ffvon_M2YyTjQ7ahiupn-27" style="edgeStyle=orthogonalEdgeStyle;rounded=0;orthogonalLoop=1;jettySize=auto;html=1;exitX=0;exitY=0.5;exitDx=0;exitDy=0;entryX=0.5;entryY=0;entryDx=0;entryDy=0;" parent="1" source="Ffvon_M2YyTjQ7ahiupn-26" target="Ffvon_M2YyTjQ7ahiupn-28" edge="1">
          <mxGeometry relative="1" as="geometry">
            <mxPoint x="40" y="280" as="targetPoint" />
          </mxGeometry>
        </mxCell>
        <mxCell id="Ffvon_M2YyTjQ7ahiupn-29" style="edgeStyle=orthogonalEdgeStyle;rounded=0;orthogonalLoop=1;jettySize=auto;html=1;exitX=1;exitY=0.5;exitDx=0;exitDy=0;entryX=0.5;entryY=0;entryDx=0;entryDy=0;" parent="1" source="Ffvon_M2YyTjQ7ahiupn-26" target="Ffvon_M2YyTjQ7ahiupn-49" edge="1">
          <mxGeometry relative="1" as="geometry">
            <mxPoint x="170" y="280" as="targetPoint" />
          </mxGeometry>
        </mxCell>
        <mxCell id="Ffvon_M2YyTjQ7ahiupn-26" value="3" style="shape=process;whiteSpace=wrap;html=1;backgroundOutline=1;" parent="1" vertex="1">
          <mxGeometry x="10" y="230" width="90" height="30" as="geometry" />
        </mxCell>
        <mxCell id="Ffvon_M2YyTjQ7ahiupn-41" style="edgeStyle=orthogonalEdgeStyle;rounded=0;orthogonalLoop=1;jettySize=auto;html=1;exitX=1;exitY=0.5;exitDx=0;exitDy=0;entryX=0.5;entryY=0;entryDx=0;entryDy=0;" parent="1" source="Ffvon_M2YyTjQ7ahiupn-28" target="Ffvon_M2YyTjQ7ahiupn-52" edge="1">
          <mxGeometry relative="1" as="geometry">
            <mxPoint x="100" y="330" as="targetPoint" />
          </mxGeometry>
        </mxCell>
        <mxCell id="Ffvon_M2YyTjQ7ahiupn-42" style="edgeStyle=orthogonalEdgeStyle;rounded=0;orthogonalLoop=1;jettySize=auto;html=1;exitX=0;exitY=0.5;exitDx=0;exitDy=0;entryX=0.5;entryY=0;entryDx=0;entryDy=0;" parent="1" source="Ffvon_M2YyTjQ7ahiupn-28" target="Ffvon_M2YyTjQ7ahiupn-51" edge="1">
          <mxGeometry relative="1" as="geometry">
            <mxPoint x="-30" y="330" as="targetPoint" />
          </mxGeometry>
        </mxCell>
        <mxCell id="Ffvon_M2YyTjQ7ahiupn-28" value="2" style="shape=process;whiteSpace=wrap;html=1;backgroundOutline=1;" parent="1" vertex="1">
          <mxGeometry x="-60" y="280" width="90" height="30" as="geometry" />
        </mxCell>
        <mxCell id="Ffvon_M2YyTjQ7ahiupn-47" value="&lt;font color=&quot;#ff0b03&quot;&gt;NULL&lt;/font&gt;" style="text;html=1;align=center;verticalAlign=middle;whiteSpace=wrap;rounded=0;" parent="1" vertex="1">
          <mxGeometry x="450" y="260" width="60" height="30" as="geometry" />
        </mxCell>
        <mxCell id="Ffvon_M2YyTjQ7ahiupn-66" style="edgeStyle=orthogonalEdgeStyle;rounded=0;orthogonalLoop=1;jettySize=auto;html=1;exitX=1;exitY=0.25;exitDx=0;exitDy=0;" parent="1" source="Ffvon_M2YyTjQ7ahiupn-49" edge="1">
          <mxGeometry relative="1" as="geometry">
            <mxPoint x="210" y="330" as="targetPoint" />
          </mxGeometry>
        </mxCell>
        <mxCell id="Ffvon_M2YyTjQ7ahiupn-49" value="&lt;font color=&quot;#ff0b03&quot;&gt;NULL&lt;/font&gt;" style="text;html=1;align=center;verticalAlign=middle;whiteSpace=wrap;rounded=0;" parent="1" vertex="1">
          <mxGeometry x="140" y="290" width="60" height="30" as="geometry" />
        </mxCell>
        <mxCell id="Ffvon_M2YyTjQ7ahiupn-51" value="&lt;font color=&quot;#ff0b03&quot;&gt;NULL&lt;/font&gt;" style="text;html=1;align=center;verticalAlign=middle;whiteSpace=wrap;rounded=0;" parent="1" vertex="1">
          <mxGeometry x="-110" y="330" width="60" height="30" as="geometry" />
        </mxCell>
        <mxCell id="Ffvon_M2YyTjQ7ahiupn-52" value="&lt;font color=&quot;#ff0b03&quot;&gt;NULL&lt;/font&gt;" style="text;html=1;align=center;verticalAlign=middle;whiteSpace=wrap;rounded=0;" parent="1" vertex="1">
          <mxGeometry x="25" y="330" width="60" height="30" as="geometry" />
        </mxCell>
        <mxCell id="Ffvon_M2YyTjQ7ahiupn-54" value="&lt;font color=&quot;#ff0b03&quot;&gt;NULL&lt;/font&gt;" style="text;html=1;align=center;verticalAlign=middle;whiteSpace=wrap;rounded=0;" parent="1" vertex="1">
          <mxGeometry x="565" y="260" width="60" height="30" as="geometry" />
        </mxCell>
        <mxCell id="Ffvon_M2YyTjQ7ahiupn-59" value="&lt;ol style=&quot;padding: 0px; margin: 0px 0px 6px 25px; color: rgb(45, 59, 69); font-family: LatoWeb, &amp;quot;Lato Extended&amp;quot;, Lato, &amp;quot;Helvetica Neue&amp;quot;, Helvetica, Arial, sans-serif; font-size: 16px; font-style: normal; font-variant-ligatures: normal; font-variant-caps: normal; letter-spacing: normal; orphans: 2; text-align: start; text-indent: 0px; text-transform: none; widows: 2; word-spacing: 0px; -webkit-text-stroke-width: 0px; white-space: normal; background-color: rgb(255, 255, 255); text-decoration-thickness: initial; text-decoration-style: initial; text-decoration-color: initial;&quot;&gt;&lt;li style=&quot;font-weight: 400;&quot;&gt;FaÃ§a o desenho de inserÃ§Ã£o os seguintes elementos em uma Ãrvore BinÃ¡ria de Busca: 10, 5, 15, 3, 7, 12, 18, 2, 6, 4&lt;/li&gt;&lt;li style=&quot;&quot;&gt;&lt;span style=&quot;font-weight: 400;&quot;&gt;Qual Ã© a altura da Ã¡rvore? &lt;/span&gt;&lt;b&gt;R: 3&lt;/b&gt;&lt;/li&gt;&lt;li style=&quot;&quot;&gt;Qual o grau do nodo 5? &lt;b&gt;R: 2&lt;/b&gt;&lt;/li&gt;&lt;li style=&quot;&quot;&gt;&lt;span style=&quot;font-weight: 400;&quot;&gt;Qual o grau do nodo 3? &lt;/span&gt;&lt;b&gt;R: 2&lt;/b&gt;&lt;/li&gt;&lt;li style=&quot;&quot;&gt;&lt;span style=&quot;font-weight: 400;&quot;&gt;Qual a altura do nodo 5? &lt;/span&gt;&lt;b&gt;R: 2&lt;/b&gt;&lt;/li&gt;&lt;li style=&quot;&quot;&gt;&lt;span style=&quot;font-weight: 400;&quot;&gt;Qual o caminho atÃ© o elemento 6? &lt;/span&gt;&lt;b&gt;R: 10 5 7 6&lt;/b&gt;&lt;/li&gt;&lt;li style=&quot;&quot;&gt;&lt;span style=&quot;font-weight: 400;&quot;&gt;Qual o caminho atÃ© o elemento 2? &lt;/span&gt;&lt;b&gt;R: 10 5 3 2&lt;/b&gt;&lt;/li&gt;&lt;li style=&quot;&quot;&gt;&lt;span style=&quot;font-weight: 400;&quot;&gt;Quantos nodos temos na Ã¡rvore? &lt;/span&gt;&lt;b&gt;R: 10&lt;/b&gt;&lt;/li&gt;&lt;li style=&quot;&quot;&gt;&lt;span style=&quot;font-weight: 400;&quot;&gt;Quantas arestas temos na Ã¡rvore? &lt;/span&gt;&lt;b&gt;R: 9&lt;/b&gt;&lt;/li&gt;&lt;li style=&quot;&quot;&gt;&lt;span style=&quot;font-weight: 400;&quot;&gt;Como ficaria a impressÃ£o Em Ordem? &lt;/span&gt;&lt;b&gt;R: 2 3 4 5 6 7 10 12 15 18&lt;/b&gt;&lt;/li&gt;&lt;li style=&quot;&quot;&gt;&lt;span style=&quot;font-weight: 400;&quot;&gt;Como ficaria a impressÃ£o PÃ³s-ordem? &lt;/span&gt;&lt;b&gt;R: 2 4 3 6 7 5 12 18 15 10&lt;/b&gt;&lt;/li&gt;&lt;li style=&quot;&quot;&gt;&lt;span style=&quot;font-weight: 400;&quot;&gt;Como ficaria a impressÃ£o PrÃ©-ordem? &lt;/span&gt;&lt;b&gt;R: 10 5 3 2 4 5 7 6 15 12 18&lt;/b&gt;&lt;/li&gt;&lt;li style=&quot;font-weight: 400;&quot;&gt;Usando o algoritmo de Ã¡rvore binÃ¡ria de busca disponibilizado, crie uma funÃ§Ã£o para imprimir todos os nodos de um mesmo nÃ­vel. VocÃª poderÃ¡ usar a lib&lt;span&gt;&amp;nbsp;&lt;/span&gt;&lt;em style=&quot;font-style: italic;&quot;&gt;queue (fila)&lt;span&gt;&amp;nbsp;&lt;/span&gt;&lt;/em&gt;padrÃ£o c++ para guardar os elementos do mesmo nÃ­vel. A funÃ§Ã£o deverÃ¡ ter a seguinte assinatura:&amp;nbsp;&lt;div&gt;&lt;span&gt;void&amp;nbsp;&lt;/span&gt;&lt;span&gt;ArvoreBinariaBusca_Imprimir_Por_Nivel&lt;/span&gt;(&lt;span&gt;int&amp;nbsp;&lt;/span&gt;nivel)&lt;/div&gt;&lt;/li&gt;&lt;/ol&gt;" style="text;whiteSpace=wrap;html=1;" parent="1" vertex="1">
          <mxGeometry x="90" y="400" width="560" height="370" as="geometry" />
        </mxCell>
        <mxCell id="Ffvon_M2YyTjQ7ahiupn-67" style="edgeStyle=orthogonalEdgeStyle;rounded=0;orthogonalLoop=1;jettySize=auto;html=1;exitX=0;exitY=0.5;exitDx=0;exitDy=0;entryX=0.5;entryY=0;entryDx=0;entryDy=0;" parent="1" source="Ffvon_M2YyTjQ7ahiupn-60" target="Ffvon_M2YyTjQ7ahiupn-74" edge="1">
          <mxGeometry relative="1" as="geometry">
            <mxPoint x="240" y="330" as="targetPoint" />
          </mxGeometry>
        </mxCell>
        <mxCell id="Ffvon_M2YyTjQ7ahiupn-79" style="edgeStyle=orthogonalEdgeStyle;rounded=0;orthogonalLoop=1;jettySize=auto;html=1;exitX=1;exitY=0.5;exitDx=0;exitDy=0;entryX=0.5;entryY=0;entryDx=0;entryDy=0;" parent="1" source="Ffvon_M2YyTjQ7ahiupn-60" target="Ffvon_M2YyTjQ7ahiupn-75" edge="1">
          <mxGeometry relative="1" as="geometry" />
        </mxCell>
        <mxCell id="Ffvon_M2YyTjQ7ahiupn-60" value="6" style="shape=process;whiteSpace=wrap;html=1;backgroundOutline=1;" parent="1" vertex="1">
          <mxGeometry x="260" y="280" width="90" height="30" as="geometry" />
        </mxCell>
        <mxCell id="Ffvon_M2YyTjQ7ahiupn-65" style="edgeStyle=orthogonalEdgeStyle;rounded=0;orthogonalLoop=1;jettySize=auto;html=1;exitX=0;exitY=0.5;exitDx=0;exitDy=0;" parent="1" source="Ffvon_M2YyTjQ7ahiupn-61" edge="1">
          <mxGeometry relative="1" as="geometry">
            <mxPoint x="100" y="330" as="targetPoint" />
          </mxGeometry>
        </mxCell>
        <mxCell id="Ffvon_M2YyTjQ7ahiupn-61" value="4" style="shape=process;whiteSpace=wrap;html=1;backgroundOutline=1;" parent="1" vertex="1">
          <mxGeometry x="110" y="280" width="90" height="30" as="geometry" />
        </mxCell>
        <mxCell id="Ffvon_M2YyTjQ7ahiupn-72" value="&lt;font color=&quot;#ff0b03&quot;&gt;NULL&lt;/font&gt;" style="text;html=1;align=center;verticalAlign=middle;whiteSpace=wrap;rounded=0;" parent="1" vertex="1">
          <mxGeometry x="70" y="330" width="60" height="30" as="geometry" />
        </mxCell>
        <mxCell id="Ffvon_M2YyTjQ7ahiupn-73" value="&lt;font color=&quot;#ff0b03&quot;&gt;NULL&lt;/font&gt;" style="text;html=1;align=center;verticalAlign=middle;whiteSpace=wrap;rounded=0;" parent="1" vertex="1">
          <mxGeometry x="180" y="330" width="60" height="30" as="geometry" />
        </mxCell>
        <mxCell id="Ffvon_M2YyTjQ7ahiupn-74" value="&lt;font color=&quot;#ff0b03&quot;&gt;NULL&lt;/font&gt;" style="text;html=1;align=center;verticalAlign=middle;whiteSpace=wrap;rounded=0;" parent="1" vertex="1">
          <mxGeometry x="220" y="330" width="60" height="30" as="geometry" />
        </mxCell>
        <mxCell id="Ffvon_M2YyTjQ7ahiupn-75" value="&lt;font color=&quot;#ff0b03&quot;&gt;NULL&lt;/font&gt;" style="text;html=1;align=center;verticalAlign=middle;whiteSpace=wrap;rounded=0;" parent="1" vertex="1">
          <mxGeometry x="330" y="330" width="60" height="30" as="geometry" />
        </mxCell>
        <mxCell id="Ffvon_M2YyTjQ7ahiupn-76" value="&lt;font color=&quot;#ff0b03&quot;&gt;NULL&lt;/font&gt;" style="text;html=1;align=center;verticalAlign=middle;whiteSpace=wrap;rounded=0;" parent="1" vertex="1">
          <mxGeometry x="390" y="260" width="60" height="30" as="geometry" />
        </mxCell>
        <mxCell id="Ffvon_M2YyTjQ7ahiupn-77" value="&lt;font color=&quot;#ff0b03&quot;&gt;NULL&lt;/font&gt;" style="text;html=1;align=center;verticalAlign=middle;whiteSpace=wrap;rounded=0;" parent="1" vertex="1">
          <mxGeometry x="625" y="260" width="60" height="30" as="geometry" />
        </mxCell>
        <mxCell id="Ffvon_M2YyTjQ7ahiupn-78" value="&lt;font color=&quot;#ff0b03&quot;&gt;NULL&lt;/font&gt;" style="text;html=1;align=center;verticalAlign=middle;whiteSpace=wrap;rounded=0;" parent="1" vertex="1">
          <mxGeometry x="740" y="260" width="60" height="30" as="geometry" />
        </mxCell>
      </root>
    </mxGraphModel>
  </diagram>
</mxfile>
